<?xml version="1.0" encoding="iso-8859-1"?>
<!-- Generator: Adobe Illustrator 17.1.0, SVG Export Plug-In . SVG Version: 6.00 Build 0)  -->
<!DOCTYPE svg PUBLIC "-//W3C//DTD SVG 1.1//EN" "http://www.w3.org/Graphics/SVG/1.1/DTD/svg11.dtd">
<svg version="1.1" id="Capa_1" xmlns="http://www.w3.org/2000/svg" xmlns:xlink="http://www.w3.org/1999/xlink" x="0px" y="0px"
	 viewBox="0 0 310.285 310.285" style="enable-background:new 0 0 310.285 310.285;" xml:space="preserve">
<path d="M264.845,45.441C235.542,16.139,196.583,0,155.142,0C113.702,0,74.743,16.139,45.44,45.441
	C16.138,74.743,0,113.703,0,155.144c0,41.439,16.138,80.399,45.44,109.701c29.303,29.303,68.262,45.44,109.702,45.44
	c41.44,0,80.399-16.138,109.702-45.44c29.303-29.302,45.44-68.262,45.44-109.701C310.285,113.703,294.147,74.743,264.845,45.441z
	 M132.172,49.336c2.399-2.483,5.637-3.873,9.119-3.873h28.04c3.482,0,6.72,1.403,9.114,3.888c2.395,2.485,3.643,5.804,3.514,9.284
	l-4.634,104.895c-0.263,7.102-6.26,12.933-13.368,12.933h-17.627c-7.112,0-13.099-5.839-13.345-12.945L128.64,58.594
	C128.519,55.114,129.773,51.821,132.172,49.336z M155.478,268.78c-16.266,0-28.532-12.844-28.532-29.876
	c0-17.223,12.122-30.211,28.196-30.211c16.602,0,28.196,12.423,28.196,30.211C183.339,256.495,171.882,268.78,155.478,268.78z"/>
<g>
</g>
<g>
</g>
<g>
</g>
<g>
</g>
<g>
</g>
<g>
</g>
<g>
</g>
<g>
</g>
<g>
</g>
<g>
</g>
<g>
</g>
<g>
</g>
<g>
</g>
<g>
</g>
<g>
</g>
</svg>
